<svg xmlns="http://www.w3.org/2000/svg" viewBox="0 0 40 40" fill="none">
  <defs>
    <linearGradient id="lm" x1="8" y1="36" x2="34" y2="6" gradientUnits="userSpaceOnUse">
      <stop stop-color="#f0abfc"/>
      <stop offset="0.45" stop-color="#e879f9"/>
      <stop offset="1" stop-color="#c026d3"/>
    </linearGradient>
  </defs>
  <path fill="#1c1917" d="M6 10h12l4 4h14v22a4 4 0 01-4 4H6a4 4 0 01-4-4V14a4 4 0 014-4z"/>
  <path fill="url(#lm)" d="M18 10 14 6H6v8l6 6-6 6v8h8l12-12 6 6h8v-8l-8-8 8-8V6h-8l-6 6-6-6z" opacity="0.95"/>
  <path fill="#fafaf9" fill-opacity="0.12" d="m20 16 8 8-8 8-8-8 8-8z"/>
</svg>
